<?xml version="1.0" encoding="UTF-8"?>
<svg id="Warstwa_1" data-name="Warstwa 1" xmlns="http://www.w3.org/2000/svg" viewBox="0 0 546.26 126.04">
  <defs>
    <style>
      .cls-1, .cls-2, .cls-3 {
        fill: none;
      }

      .cls-2 {
        stroke: #000;
        stroke-width: 6px;
      }

      .cls-2, .cls-3 {
        stroke-miterlimit: 10;
      }

      .cls-4 {
        fill: #c1272d;
      }

      .cls-3 {
        stroke: #c1272d;
        stroke-width: 12px;
      }
    </style>
  </defs>
  <g>
    <rect class="cls-1" x="139.96" y="12" width="406.3" height="114.04"/>
    <path d="M161.36,89.2c-12.8,0-18.6-6.7-18.6-17.9v-20.2c0-12.1,7.4-17.6,18.6-17.6,10.4,0,16.9,5.5,16.9,16.2,0,2.7-.2,4.2-.5,6l-11.6-.7c.2-1,.4-2.4.4-4.2,0-4.4-1.9-6-4.4-6-2.8,0-4.3,1.5-4.3,5.6v22c0,4,1.5,5.5,4.2,5.5,3.1,0,4.5-2.2,4.5-6.4,0-1.3-.2-3.1-.3-4l11.5-.6c.1.7.5,3.2.5,6,0,11.9-7.7,16.3-16.9,16.3Z"/>
    <path d="M208.26,88c-.7-1.5-1.1-4-1.1-5.4h-.3c-2.3,3.1-6.1,6.5-12,6.5-8.6,0-13-5.9-13-13.4v-2c0-6.8,4.8-11.9,13.6-15.8l9.4-4.2v-4.2c0-3.1-1.4-4.7-4.4-4.7s-4.6,1.6-4.6,5.7c0,1,.2,2.1.4,2.9l-11.5.9c-.3-1.4-.6-3.7-.6-5.3,0-9.4,5.5-15.5,17.3-15.5,13,0,18.4,6.4,18.4,18v28.9c0,2.8.3,5.9.9,7.6h-12.5ZM204.86,63.9l-4,2c-2.6,1.3-4.1,3.2-4.1,5.6v2.6c0,2.3,1.5,3.7,3.7,3.7,2.6,0,4.4-2,4.4-4.8v-9.1Z"/>
    <path d="M253.86,48.1c-1.2-.2-2.2-.3-3.7-.3-6.5,0-8.8,4-8.8,9.4v30.8h-15v-45.1c0-3.6-.1-5.5-.7-8h13.1c.6,2.2,1.1,6.2,1.1,8.5h.5c3-7.1,6.5-10,13.5-10v14.7Z"/>
    <path d="M274.26,88.9c-12.4,0-16.8-6.5-16.8-14.8,0-1.6.2-3.5.6-5.1l11.5.6c-.2.9-.4,2.6-.4,3.5,0,3.7,1.6,5.1,4.8,5.1,2.4,0,4.2-1.4,4.2-3.3,0-2.3-1.3-3.5-5.3-6.6l-6.4-4.8c-4.7-3.4-9.1-6.8-9.1-15.4s7.3-14.6,17.4-14.6c11.2,0,17.2,4.4,17.2,15.1,0,1.5-.1,3.4-.4,5l-11.3-.7c.3-.9.5-1.9.5-3.7,0-3.3-1.8-5-4.8-5-2.7,0-4.2,1.7-4.2,3.5,0,2,1,3.1,4.1,5.3l7.6,5.5c5.2,3.8,9.3,8,9.3,14.9,0,9.8-6.5,15.5-18.5,15.5Z"/>
    <path class="cls-4" d="M339.96,69.6c0,12.6-7.3,18.4-19.7,18.4h-20.9V11.99h20.5c13.2,0,20.1,6.7,20.1,20.1v37.5ZM324.06,31.7c0-5.4-1.4-7.3-5.9-7.3h-2.9v51.2h2.9c3.9,0,5.9-1.6,5.9-5.6V31.7Z"/>
    <path class="cls-4" d="M362.15,88h-15V11.99h15v76Z"/>
    <path class="cls-4" d="M404.35,63.5h-20.9v9.6c0,3.6,1.7,5,4.3,5s4.4-1.5,4.4-5.6c0-1-.1-2.5-.3-3.7l11.6-.6c.2,1.3.4,3.4.4,5.8,0,9-4.9,15.2-16.5,15.2s-19-5.6-19-17.2v-20.3c0-12.3,7-18.2,18.8-18.2,11,0,17.5,6.1,17.5,19.3,0,3.5-.2,8-.3,10.7ZM387.45,44.3c-2.6,0-4,1.5-4,4.8v5.3h8.1c0-.9.1-3.1.1-4.6,0-4-1.4-5.5-4.2-5.5Z"/>
    <path d="M425.05,88h-13.9v-14.4h13.9v14.4Z"/>
    <path d="M470.45,73.3c0,10.4-6.5,15.5-12.5,15.5-5.1,0-8.2-2.1-10-3.6h-.5v22.8h-15V43.2c0-3.2-.2-7-.7-8.3h13.2c.4,1.3.8,3.5.9,5.5h.5c1.9-2.7,5.6-7,11.6-7,6.7,0,12.5,4.4,12.5,15v24.9ZM455.45,49.1c0-2.8-1.1-4.4-3.7-4.4-3,0-4.3,2.1-4.3,5v23.2c0,2.9,1.5,4.9,4.2,4.9s3.8-1.4,3.8-4.6v-24.1Z"/>
    <path d="M491.65,88h-15V11.99h15v76Z"/>
  </g>
  <circle class="cls-3" cx="56.27" cy="60.42" r="50.27"/>
  <path class="cls-4" d="M45.36,77.55h21.83c6.28,0,11.39,5.1,11.39,11.39v.96h-44.6s0,0,0,0v-.96c0-6.28,5.1-11.39,11.39-11.39Z"/>
  <path class="cls-2" d="M27.59,76.46c-2.44-4.56-3.82-9.76-3.82-15.29,0-18.73,15.86-33.76,34.86-32.42,15.95,1.13,28.87,14.01,30.05,29.95.1,1.38.12,2.74.05,4.08"/>
  <rect x="79.44" y="58.52" width="8.85" height="5.25"/>
  <rect x="87.67" y="62.67" width="4.06" height="1.1"/>
  <rect x="26.51" y="59.21" width="6.95" height="4.17"/>
  <rect x="35.63" y="38.47" width="4.35" height="7.45" transform="translate(-18.82 43.9) rotate(-49.86)"/>
  <rect x="53.7" y="31.5" width="4.35" height="7.7"/>
  <circle class="cls-4" cx="55.88" cy="64.07" r="8.01"/>
  <polyline class="cls-4" points="56.58 57.23 62.62 62.46 62.62 62.46 73.68 44.42"/>
</svg>